<svg width="97" height="96" viewBox="0 0 97 96" fill="none" xmlns="http://www.w3.org/2000/svg">
<rect x="0.818359" width="96" height="96" rx="48" fill="#D50132"/>
<g clip-path="url(#clip0_327_3240)">
<path fill-rule="evenodd" clip-rule="evenodd" d="M70.4927 55.1351L49.9668 23.9528C49.4991 23.2424 48.3697 23.2424 47.9022 23.9528L27.3763 55.1351C24.1678 60.0095 27.93 66.2765 34.0646 66.2765H39.5134C35.6565 66.2564 33.2975 62.3106 35.3189 59.2401L48.2825 39.5459C48.5778 39.0973 49.2911 39.0973 49.5865 39.5459L62.5502 59.2401C64.5715 62.3107 62.2125 66.2564 58.3556 66.2765H63.8043C69.9389 66.2765 73.7012 60.0095 70.4927 55.1351ZM48.6084 72.7054L42.1265 62.8583C41.1134 61.319 42.3013 59.3399 44.2385 59.3399H53.6301C55.5675 59.3399 56.7554 61.319 55.7423 62.8583L49.2604 72.7054C49.1127 72.9296 48.7561 72.9296 48.6084 72.7054Z" fill="white"/>
</g>
<defs>
<clipPath id="clip0_327_3240">
<rect width="46" height="50" fill="white" transform="translate(25.8184 23)"/>
</clipPath>
</defs>
</svg>
