<svg width="96" height="96" viewBox="0 0 96 96" fill="none" xmlns="http://www.w3.org/2000/svg">
<g clip-path="url(#clip0_326_3218)">
<rect width="96" height="96" rx="48" fill="white"/>
<rect x="-108.549" width="204.549" height="96" fill="#f0f0f0"/>
<path d="M60.3744 62.7089C45.4587 49.9784 44.9952 64.9934 35.6309 62.7089L42.8431 50.2157C45.1387 46.2426 50.8721 46.2426 53.1677 50.2157L60.3799 62.7089H60.3744Z" fill="url(#paint0_linear_326_3218)"/>
<path d="M48.472 14.1984C29.4563 13.939 13.9392 29.4617 14.1985 48.4718C14.4468 66.7039 29.2963 81.5533 47.5283 81.8017C66.544 82.061 82.0612 66.5384 81.8018 47.5282C81.5535 29.2961 66.704 14.4467 48.472 14.1984ZM61.2355 64.2042L60.3692 62.7032C45.4535 49.9728 44.99 64.9878 35.6256 62.7032L34.7593 64.2042C33.8101 65.8486 31.5477 66.0969 30.2454 64.7119C26.1951 60.4077 23.6843 54.6412 23.607 48.2952C23.447 34.8419 34.3509 23.7117 47.8098 23.6069C61.3459 23.502 72.3933 34.4832 72.3933 47.9973C72.3933 54.4756 69.8549 60.369 65.7218 64.7394C64.4306 66.108 62.1791 65.8265 61.2355 64.1986V64.2042Z" fill="white"/>
</g>
<defs>
<linearGradient id="paint0_linear_326_3218" x1="47.9971" y1="47.6718" x2="47.9971" y2="62.6427" gradientUnits="userSpaceOnUse">
<stop stop-color="#0A92FF"/>
<stop offset="1" stop-color="#00FFE2"/>
</linearGradient>
<clipPath id="clip0_326_3218">
<rect width="96" height="96" rx="48" fill="white"/>
</clipPath>
</defs>
</svg>