<svg width="800" height="801" viewBox="0 0 800 801" fill="none" xmlns="http://www.w3.org/2000/svg">
<path d="M690.122 55.228H113.753C106.325 54.88 98.8995 56.0004 91.9041 58.5256C84.9087 61.0508 78.4801 64.9308 72.9858 69.9433C67.492 74.9562 63.0403 81.0035 59.8865 87.7386C56.7326 94.4741 54.9379 101.765 54.6055 109.195V686.86C55.0407 702.407 61.4122 717.203 72.4116 728.199C83.411 739.2 98.204 745.572 113.753 746.008H690.122C705.237 745.335 719.489 738.764 729.821 727.707C740.152 716.65 745.739 701.988 745.385 686.86V109.195C745.51 101.963 744.154 94.7833 741.404 88.0939C738.654 81.405 734.565 75.3482 729.389 70.2947C724.217 65.2417 718.064 61.2991 711.312 58.7082C704.56 56.1174 697.35 54.9331 690.122 55.228ZM270.474 631.166H169.879V323.338H270.474V631.166ZM222.551 276.709C215.532 276.954 208.537 275.744 202.007 273.156C195.477 270.568 189.553 266.658 184.607 261.671C179.661 256.684 175.799 250.728 173.264 244.178C170.73 237.627 169.577 230.623 169.879 223.605C169.569 216.512 170.744 209.432 173.331 202.82C175.918 196.208 179.858 190.209 184.898 185.209C189.939 180.209 195.969 176.318 202.602 173.785C209.235 171.252 216.324 170.134 223.415 170.502C230.434 170.257 237.429 171.467 243.958 174.055C250.488 176.642 256.413 180.553 261.359 185.54C266.305 190.527 270.167 196.482 272.701 203.033C275.236 209.584 276.388 216.588 276.087 223.605C276.397 230.699 275.221 237.778 272.635 244.391C270.048 251.003 266.108 257.002 261.068 262.002C256.027 267.002 249.997 270.893 243.364 273.426C236.731 275.959 229.642 277.077 222.551 276.709ZM630.543 631.166H529.516V462.789C529.516 422.637 515.269 395.006 479.435 395.006C468.304 395.101 457.472 398.637 448.432 405.13C439.387 411.624 432.574 420.755 428.921 431.272C426.115 439.156 424.941 447.527 425.468 455.881V631.166H326.168V323.338H425.468V366.512C434.297 350.291 447.434 336.83 463.434 327.608C479.435 318.39 497.671 313.774 516.132 314.27C581.325 314.27 630.543 357.445 630.543 449.405V631.166Z" fill="black"/>
</svg>
