<svg width="97" height="96" viewBox="0 0 97 96" fill="none" xmlns="http://www.w3.org/2000/svg">
<rect x="0.878906" width="96" height="96" rx="48" fill="white"/>
<g clip-path="url(#clip0_326_3230)">
<path d="M75.9337 40.0992C75.829 35.2552 69.1327 31.2423 59.6111 29.5849C59.9083 29.4535 60.1979 29.321 60.4571 29.1877C60.7337 29.0428 60.9804 28.9048 61.2259 28.7223C61.3476 28.6278 61.4738 28.5256 61.6162 28.3504C61.6875 28.262 61.7632 28.152 61.8329 27.9949C61.9027 27.8403 61.966 27.6286 61.9605 27.3723C61.9603 27.3622 61.9551 27.3508 61.9548 27.3406C61.9342 26.7352 61.6629 26.3062 61.4091 26.0043C60.9491 25.4749 60.4101 25.1447 59.8207 24.8196C58.9408 24.3475 57.9468 23.9596 57.1541 23.677C56.7605 23.5376 56.4203 23.4251 56.174 23.3476C55.2235 22.0584 54.1864 21.0732 53.0756 20.4137C51.8575 19.6875 50.5546 19.351 49.2973 19.3808C47.468 19.4203 45.7734 20.2017 44.3956 21.4151C43.0127 22.6298 41.9191 24.2807 41.2292 26.1818C40.8388 27.2449 40.4749 28.3725 40.1269 29.5318C29.2202 31.3132 21.3903 35.9703 21.505 41.2758C21.5874 45.0872 25.7653 48.3919 32.1845 50.4339C31.481 59.7603 30.7384 70.1856 30.668 70.4218C30.6838 71.1534 34.0606 76.9303 49.4882 76.5968C64.9309 76.263 68.0549 70.3455 68.039 69.6139C67.9586 69.3938 66.9753 60.9915 65.9478 52.2904C62.9526 52.8513 59.7082 53.1955 56.3018 53.2692C52.6257 53.3486 49.1239 53.0979 45.9115 52.5921C46.9179 52.6227 47.939 52.6273 48.9696 52.605C63.999 52.2802 76.0759 46.6781 75.9337 40.0992ZM62.9217 40.0016C62.9491 41.2675 61.6565 42.4572 59.4959 43.3801C59.019 43.5856 58.486 43.7743 57.9278 43.9535C57.1798 42.0056 56.3713 40.0477 56.0286 38.6598L56.0148 38.6027L56.0121 38.5937L56.012 38.5861C55.791 37.6955 55.6944 36.8368 55.6641 36.0225C59.6365 36.7032 62.8876 38.4223 62.9217 40.0016ZM37.7332 39.2632L37.7332 39.2619C37.4313 40.6942 37.1687 42.0645 36.9367 43.3449C35.4179 42.5883 34.5104 41.6539 34.4879 40.6163C34.4594 39.297 35.8698 38.0689 38.1938 37.1273C38.0354 37.8436 37.8744 38.5638 37.7332 39.2632ZM39.3944 44.2726C39.6417 42.8886 39.9267 41.38 40.2582 39.8068L40.258 39.7979L40.2605 39.7952C40.6813 37.6882 41.193 35.4708 41.751 33.3009L41.751 33.2982C42.3312 31.0998 42.9643 28.9653 43.6509 27.0859C44.2003 25.5641 45.0749 24.2749 46.0867 23.387C47.1035 22.4965 48.2325 22.0143 49.3536 21.9914C50.1322 21.9759 50.928 22.169 51.7705 22.666C52.6082 23.1632 53.4904 23.9794 54.3466 25.221L54.6093 25.5991L55.0457 25.7274C55.0457 25.7274 55.1142 25.7476 55.2511 25.7892C55.7206 25.936 56.9418 26.3368 57.9805 26.8142C58.2225 26.9251 58.4544 27.0412 58.6609 27.1541C58.6261 27.1701 58.596 27.1849 58.5612 27.1996C57.8469 27.511 56.9769 27.841 56.2915 28.0891C55.9489 28.2139 55.6536 28.3184 55.4434 28.3906C55.2334 28.464 55.1132 28.5035 55.1132 28.5035L54.5977 28.6766L54.3588 29.169C54.3252 29.245 53.7172 30.5105 53.347 32.5068C53.1687 33.4746 53.0448 34.6213 53.0697 35.8885C53.0921 36.9236 53.2196 38.0407 53.5042 39.2001L53.5018 39.2002L53.5157 39.2598L53.5183 39.2699L53.5211 39.28C53.9291 40.8985 54.7061 42.7884 55.411 44.6096C53.4435 45.0195 51.2056 45.2821 48.8121 45.3339C45.2042 45.4121 41.9159 45.0075 39.3944 44.2726Z" fill="#040505" fill-opacity="0.95"/>
<path d="M50.4229 28.7557C51.1132 28.7408 51.658 28.1639 51.6429 27.4668C51.6279 26.7695 51.0587 26.2168 50.3684 26.2317C49.6805 26.2465 49.1333 26.8233 49.1484 27.5207C49.1634 28.2179 49.735 28.7705 50.4229 28.7557Z" fill="#040505" fill-opacity="0.95"/>
</g>
<defs>
<clipPath id="clip0_326_3230">
<rect width="56.537" height="57.2069" fill="white" transform="translate(19.998 20.0142) rotate(-1.2384)"/>
</clipPath>
</defs>
</svg>
