<svg width="97" height="96" viewBox="0 0 97 96" fill="none" xmlns="http://www.w3.org/2000/svg">
<rect x="0.939453" width="96" height="96" rx="48" fill="white"/>
<path d="M40.3158 29.1411C39.8518 29.7286 39.4206 30.3416 39.0241 30.9771C37.4974 33.518 36.3862 36.2886 35.7329 39.1834C35.4506 40.372 35.2281 41.5742 35.0664 42.7854C35.4054 42.7077 35.752 42.6685 36.0998 42.6685C36.1824 42.6685 36.2625 42.6685 36.3581 42.6685C36.5079 41.5908 36.712 40.5234 36.9626 39.4691C37.5805 36.7081 38.635 34.0646 40.0859 31.6394C40.452 31.0441 40.8513 30.4701 41.282 29.9202C41.5068 29.6605 41.7186 29.3748 41.9589 29.1255C42.0777 29.0009 42.1914 28.8658 42.3128 28.7464L42.6822 28.3828C43.1772 27.908 43.7142 27.4795 44.2865 27.1025C44.8508 26.7221 45.4578 26.4101 46.0949 26.1728C49.0348 25.1107 52.7497 26.1962 54.062 26.8377C51.5019 24.4511 45.0073 23.0487 40.3158 29.1411Z" fill="black"/>
<path d="M49.371 61.891C46.4115 62.1423 43.4313 61.9621 40.523 61.356C37.5709 60.774 34.7438 59.6743 32.1709 58.1073C31.5289 57.7022 30.9096 57.2618 30.316 56.788C30.0267 56.5283 29.727 56.2998 29.4558 56.0323C29.3162 55.8999 29.1767 55.7726 29.0398 55.635L28.6472 55.2169C28.123 54.6504 27.6541 54.0347 27.247 53.3783L27.092 53.1341L26.9525 52.8745C26.862 52.7031 26.7639 52.5369 26.6812 52.3551L26.4461 51.8357C26.366 51.6591 26.3118 51.4695 26.242 51.2877C25.7305 49.8171 25.6286 48.2339 25.9475 46.7094C26.2778 45.2311 26.9745 43.8607 27.9729 42.7257C27.2169 43.9666 26.7342 45.356 26.5572 46.8003C26.5198 47.153 26.5043 47.5077 26.5107 47.8624C26.5131 48.036 26.5244 48.2093 26.5443 48.3818C26.5547 48.556 26.5754 48.7294 26.6063 48.9012C26.7099 49.5941 26.9 50.2712 27.172 50.9164C27.4372 51.571 27.7743 52.1938 28.177 52.7732C28.5747 53.3527 29.0225 53.8959 29.5152 54.3963C30.5128 55.4089 31.6293 56.2958 32.84 57.0373C35.3072 58.5333 37.9768 59.6625 40.7658 60.39C43.5841 61.1465 46.4639 61.6489 49.371 61.891V61.891Z" fill="black"/>
<path d="M48.5508 34.361C51.5104 34.1095 54.4906 34.2897 57.3989 34.8959C60.3513 35.478 63.1786 36.5786 65.7509 38.1473C66.3948 38.5499 67.0149 38.9895 67.6084 39.4639C67.8951 39.7236 68.1948 39.9521 68.4687 40.2222C68.6056 40.3547 68.7477 40.4819 68.882 40.617L69.2773 41.0377C69.8004 41.604 70.2692 42.2188 70.6775 42.8737L70.8325 43.1178L70.972 43.3775C71.0598 43.5489 71.1605 43.7151 71.2303 43.8969L71.468 44.4163C71.5455 44.5928 71.6023 44.7824 71.6695 44.9642C72.1831 46.4343 72.2858 48.0179 71.9666 49.5426C71.641 51.0205 70.9507 52.3922 69.9593 53.5315C70.7188 52.2884 71.2018 50.8949 71.375 49.4465C71.4145 49.0948 71.4309 48.7408 71.424 48.387C71.424 48.2104 71.406 48.0338 71.3905 47.8676C71.3788 47.6935 71.3581 47.5201 71.3285 47.3482C71.2248 46.6552 71.0347 45.9782 70.7627 45.333C70.495 44.6869 70.158 44.0722 69.7578 43.4995C69.3557 42.9172 68.9046 42.3706 68.4092 41.8661C67.4125 40.8535 66.2969 39.9666 65.087 39.225C62.6234 37.7273 59.9573 36.5954 57.1715 35.8646C54.3479 35.1076 51.463 34.6044 48.5508 34.361V34.361Z" fill="black"/>
<path d="M63.2012 50.1399C62.8802 50.3367 62.532 50.4846 62.1679 50.5788C62.1033 50.8618 62.0413 51.1449 61.9741 51.4254C61.8193 52.8674 61.5716 54.2978 61.2327 55.7077C60.5955 58.5267 59.5122 61.2246 58.0241 63.6984C57.6486 64.3042 57.2398 64.8886 56.7996 65.4487C56.5723 65.7084 56.3553 66.0045 56.1124 66.2564C55.991 66.3862 55.8748 66.5161 55.7508 66.6459L55.3736 67.0147C54.87 67.4968 54.3235 67.9314 53.7409 68.3132C53.1685 68.6987 52.554 69.0168 51.9093 69.261C48.9125 70.3439 45.1253 69.2377 43.7871 68.5806C46.386 71.0165 53.0072 72.4449 57.7865 66.2434C58.2564 65.6441 58.6928 65.019 59.0936 64.371C60.6511 61.7823 61.785 58.959 62.452 56.0089C62.7963 54.5469 63.0551 53.0658 63.2271 51.5734C63.2271 51.1942 63.2271 50.8177 63.2012 50.4411C63.2116 50.3398 63.2064 50.2386 63.2012 50.1399Z" fill="black"/>
<path d="M48.9219 66.5369C41.3371 66.5369 34.1966 64.6281 28.8258 61.1768C23.3619 57.6762 20.3574 52.9861 20.3574 47.9792C20.3574 43.271 23.0674 38.7913 27.9784 35.3738C29.6392 34.2254 31.414 33.2533 33.2743 32.473C33.3507 32.4406 33.4326 32.4236 33.5155 32.4231C33.5983 32.4225 33.6805 32.4384 33.7572 32.4697C33.834 32.5011 33.9039 32.5473 33.9629 32.6058C34.0218 32.6643 34.0688 32.7339 34.101 32.8106C34.1332 32.8873 34.1501 32.9697 34.1507 33.053C34.1513 33.1363 34.1355 33.2189 34.1043 33.296C34.0731 33.3732 34.0271 33.4434 33.9689 33.5027C33.9107 33.562 33.8415 33.6092 33.7652 33.6416C31.9851 34.3854 30.2872 35.3141 28.6992 36.4125C24.1369 39.5886 21.6233 43.6995 21.6181 47.9792C21.6181 57.5074 33.8608 65.2644 48.9219 65.2773C51.8603 65.2855 54.7914 64.9826 57.6666 64.3736C57.8304 64.3392 58.001 64.3715 58.1411 64.4636C58.2811 64.5556 58.379 64.6998 58.4132 64.8644C58.4475 65.029 58.4153 65.2006 58.3237 65.3413C58.2322 65.4821 58.0887 65.5805 57.925 65.6149C54.9644 66.239 51.9468 66.548 48.9219 66.5369V66.5369Z" fill="black"/>
<path d="M64.2322 63.6023C63.9893 63.6023 64.0642 63.3556 63.9609 63.1167C63.928 63.0402 63.9105 62.9579 63.9094 62.8745C63.9082 62.7911 63.9234 62.7084 63.9541 62.6309C63.9848 62.5535 64.0305 62.4829 64.0884 62.4232C64.1463 62.3635 64.2153 62.3159 64.2916 62.2831C71.7834 59.0525 76.2423 53.7133 76.2475 48.0208C76.2552 38.4901 64.0151 30.7331 48.9463 30.7227C45.955 30.7139 42.9714 31.0273 40.0465 31.6576C39.8869 31.6828 39.7236 31.6454 39.5906 31.5531C39.4576 31.4608 39.3649 31.3206 39.3318 31.1616C39.2986 31.0026 39.3275 30.8368 39.4124 30.6986C39.4974 30.5604 39.6319 30.4602 39.7882 30.4188C42.8014 29.77 45.875 29.447 48.9566 29.4554C56.5388 29.4554 63.6819 31.3641 69.0527 34.8154C74.5166 38.3213 77.5237 43.0113 77.5211 48.0208C77.5211 54.2534 72.7599 60.0108 64.8005 63.4491C64.6158 63.5167 64.4257 63.568 64.2322 63.6023V63.6023Z" fill="black"/>
<path d="M48.9142 76.7272C44.0058 76.7272 39.4048 73.7771 35.9405 68.4326C35.849 68.2917 35.817 68.1201 35.8514 67.9555C35.8858 67.7909 35.9838 67.6468 36.1239 67.5548C36.264 67.4629 36.4347 67.4306 36.5985 67.4652C36.7623 67.4998 36.9056 67.5984 36.9971 67.7392C40.2212 72.7123 44.4527 75.4547 48.9142 75.4573C58.3901 75.4573 66.1092 63.153 66.1222 48.013C66.1289 45.0051 65.8163 42.0051 65.1896 39.064C65.1647 38.9797 65.1575 38.8911 65.1684 38.8038C65.1792 38.7165 65.208 38.6325 65.2529 38.557C65.2977 38.4814 65.3576 38.4161 65.4289 38.365C65.5001 38.3139 65.5811 38.2783 65.6667 38.2603C65.7524 38.2423 65.8408 38.2423 65.9264 38.2604C66.0121 38.2784 66.093 38.3142 66.1642 38.3653C66.2354 38.4164 66.2953 38.4818 66.3401 38.5574C66.3849 38.6329 66.4136 38.717 66.4244 38.8043C67.0698 41.8342 67.3911 44.9248 67.3828 48.0234C67.3828 55.6453 65.4841 62.8258 62.0507 68.2248C58.5606 73.7069 53.895 76.7298 48.9142 76.7272Z" fill="black"/>
<path d="M32.1172 57.967C31.9738 57.9674 31.8345 57.9184 31.7227 57.8281C31.6108 57.7379 31.533 57.6118 31.5023 57.471C30.8184 54.3594 30.477 51.1815 30.4845 47.9948C30.4845 40.3703 32.3859 33.1924 35.8192 27.7934C39.3067 22.2931 43.9723 19.2728 48.9557 19.2728C53.939 19.2728 58.5917 22.306 62.0793 27.8037C62.169 27.9456 62.199 28.1175 62.1627 28.2817C62.1264 28.4458 62.0266 28.5887 61.8855 28.6789C61.7444 28.7691 61.5733 28.7993 61.4101 28.7628C61.2468 28.7262 61.1047 28.626 61.0149 28.4841C57.7728 23.3656 53.4895 20.5453 48.9557 20.5401C39.4747 20.5349 31.7581 32.847 31.7478 47.987C31.7376 51.0812 32.0686 54.167 32.7346 57.1879C32.7709 57.3522 32.7409 57.5241 32.6514 57.6663C32.5618 57.8084 32.4199 57.909 32.2567 57.9462C32.2111 57.9583 32.1643 57.9653 32.1172 57.967V57.967Z" fill="black"/>
<path d="M37.7255 74.0575C39.9469 74.0575 41.7478 72.2472 41.7478 70.0141C41.7478 67.781 39.9469 65.9707 37.7255 65.9707C35.504 65.9707 33.7031 67.781 33.7031 70.0141C33.7031 72.2472 35.504 74.0575 37.7255 74.0575Z" fill="black"/>
<path d="M37.7237 73.133C39.4373 73.133 40.8264 71.7367 40.8264 70.0141C40.8264 68.2916 39.4373 66.8952 37.7237 66.8952C36.0102 66.8952 34.6211 68.2916 34.6211 70.0141C34.6211 71.7367 36.0102 73.133 37.7237 73.133Z" fill="url(#paint0_radial_326_3225)"/>
<path d="M37.7237 73.133C39.4373 73.133 40.8264 71.7367 40.8264 70.0141C40.8264 68.2916 39.4373 66.8952 37.7237 66.8952C36.0102 66.8952 34.6211 68.2916 34.6211 70.0141C34.6211 71.7367 36.0102 73.133 37.7237 73.133Z" fill="url(#paint1_radial_326_3225)"/>
<path d="M49.0185 54.295C52.4427 54.295 55.2186 51.5045 55.2186 48.0624C55.2186 44.6202 52.4427 41.8297 49.0185 41.8297C45.5942 41.8297 42.8184 44.6202 42.8184 48.0624C42.8184 51.5045 45.5942 54.295 49.0185 54.295Z" fill="black"/>
<path d="M61.9585 55.0403C64.0045 55.0403 65.663 53.373 65.663 51.3163C65.663 49.2596 64.0045 47.5923 61.9585 47.5923C59.9125 47.5923 58.2539 49.2596 58.2539 51.3163C58.2539 53.373 59.9125 55.0403 61.9585 55.0403Z" fill="black"/>
<path d="M61.9586 54.0508C63.461 54.0508 64.6789 52.8265 64.6789 51.3163C64.6789 49.806 63.461 48.5817 61.9586 48.5817C60.4562 48.5817 59.2383 49.806 59.2383 51.3163C59.2383 52.8265 60.4562 54.0508 61.9586 54.0508Z" fill="url(#paint2_radial_326_3225)"/>
<path d="M61.9586 54.0508C63.461 54.0508 64.6789 52.8265 64.6789 51.3163C64.6789 49.806 63.461 48.5817 61.9586 48.5817C60.4562 48.5817 59.2383 49.806 59.2383 51.3163C59.2383 52.8265 60.4562 54.0508 61.9586 54.0508Z" fill="url(#paint3_radial_326_3225)"/>
<path d="M35.9682 49.1089C38.0142 49.1089 39.6728 47.4416 39.6728 45.3849C39.6728 43.3282 38.0142 41.6609 35.9682 41.6609C33.9223 41.6609 32.2637 43.3282 32.2637 45.3849C32.2637 47.4416 33.9223 49.1089 35.9682 49.1089Z" fill="black"/>
<path d="M35.9683 48.1195C37.4707 48.1195 38.6886 46.8952 38.6886 45.3849C38.6886 43.8747 37.4707 42.6504 35.9683 42.6504C34.466 42.6504 33.248 43.8747 33.248 45.3849C33.248 46.8952 34.466 48.1195 35.9683 48.1195Z" fill="url(#paint4_radial_326_3225)"/>
<path d="M35.9683 48.1195C37.4707 48.1195 38.6886 46.8952 38.6886 45.3849C38.6886 43.8747 37.4707 42.6504 35.9683 42.6504C34.466 42.6504 33.248 43.8747 33.248 45.3849C33.248 46.8952 34.466 48.1195 35.9683 48.1195Z" fill="url(#paint5_radial_326_3225)"/>
<path d="M60.8329 29.8839C63.0543 29.8839 64.8552 28.0736 64.8552 25.8405C64.8552 23.6074 63.0543 21.7971 60.8329 21.7971C58.6114 21.7971 56.8105 23.6074 56.8105 25.8405C56.8105 28.0736 58.6114 29.8839 60.8329 29.8839Z" fill="black"/>
<path d="M60.8331 28.9594C62.5467 28.9594 63.9358 27.563 63.9358 25.8404C63.9358 24.1179 62.5467 22.7215 60.8331 22.7215C59.1196 22.7215 57.7305 24.1179 57.7305 25.8404C57.7305 27.563 59.1196 28.9594 60.8331 28.9594Z" fill="url(#paint6_radial_326_3225)"/>
<path d="M60.8331 28.9594C62.5467 28.9594 63.9358 27.563 63.9358 25.8404C63.9358 24.1179 62.5467 22.7215 60.8331 22.7215C59.1196 22.7215 57.7305 24.1179 57.7305 25.8404C57.7305 27.563 59.1196 28.9594 60.8331 28.9594Z" fill="url(#paint7_radial_326_3225)"/>
<defs>
<radialGradient id="paint0_radial_326_3225" cx="0" cy="0" r="1" gradientUnits="userSpaceOnUse" gradientTransform="translate(37.7599 70.0012) scale(3.10264 3.1189)">
<stop stop-color="#AA2026"/>
<stop offset="0.33" stop-color="#A61F26"/>
<stop offset="0.62" stop-color="#9C1D27"/>
<stop offset="0.89" stop-color="#8A1A28"/>
<stop offset="0.98" stop-color="#821929"/>
</radialGradient>
<radialGradient id="paint1_radial_326_3225" cx="0" cy="0" r="1" gradientUnits="userSpaceOnUse" gradientTransform="translate(37.7599 70.0012) scale(3.10264 3.1189)">
<stop stop-color="#AA2026"/>
<stop offset="0.33" stop-color="#A61F26"/>
<stop offset="0.62" stop-color="#9C1D27"/>
<stop offset="0.89" stop-color="#8A1A28"/>
<stop offset="0.98" stop-color="#821929"/>
</radialGradient>
<radialGradient id="paint2_radial_326_3225" cx="0" cy="0" r="1" gradientUnits="userSpaceOnUse" gradientTransform="translate(61.9818 51.2851) scale(2.7203 2.73456)">
<stop stop-color="#1051A3"/>
<stop offset="0.29" stop-color="#124E9F"/>
<stop offset="0.6" stop-color="#194491"/>
<stop offset="0.93" stop-color="#25357B"/>
<stop offset="1" stop-color="#283176"/>
</radialGradient>
<radialGradient id="paint3_radial_326_3225" cx="0" cy="0" r="1" gradientUnits="userSpaceOnUse" gradientTransform="translate(61.9818 51.2851) scale(2.7203 2.73456)">
<stop stop-color="#1051A3"/>
<stop offset="0.29" stop-color="#124E9F"/>
<stop offset="0.6" stop-color="#194491"/>
<stop offset="0.93" stop-color="#25357B"/>
<stop offset="1" stop-color="#283176"/>
</radialGradient>
<radialGradient id="paint4_radial_326_3225" cx="0" cy="0" r="1" gradientUnits="userSpaceOnUse" gradientTransform="translate(35.9864 45.3719) scale(2.7203 2.73456)">
<stop stop-color="#FEBC2C"/>
<stop offset="0.31" stop-color="#FBBA2D"/>
<stop offset="0.55" stop-color="#F1B42E"/>
<stop offset="0.77" stop-color="#E1AA31"/>
<stop offset="0.97" stop-color="#CA9B35"/>
<stop offset="1" stop-color="#C59836"/>
</radialGradient>
<radialGradient id="paint5_radial_326_3225" cx="0" cy="0" r="1" gradientUnits="userSpaceOnUse" gradientTransform="translate(35.9864 45.3719) scale(2.7203 2.73456)">
<stop stop-color="#FEBC2C"/>
<stop offset="0.31" stop-color="#FBBA2D"/>
<stop offset="0.55" stop-color="#F1B42E"/>
<stop offset="0.77" stop-color="#E1AA31"/>
<stop offset="0.97" stop-color="#CA9B35"/>
<stop offset="1" stop-color="#C59836"/>
</radialGradient>
<radialGradient id="paint6_radial_326_3225" cx="0" cy="0" r="1" gradientUnits="userSpaceOnUse" gradientTransform="translate(60.8383 25.8093) scale(3.10264 3.11891)">
<stop stop-color="#397047"/>
<stop offset="0.32" stop-color="#366C43"/>
<stop offset="0.64" stop-color="#2E5F37"/>
<stop offset="0.97" stop-color="#214B24"/>
<stop offset="1" stop-color="#204922"/>
</radialGradient>
<radialGradient id="paint7_radial_326_3225" cx="0" cy="0" r="1" gradientUnits="userSpaceOnUse" gradientTransform="translate(60.8383 25.8093) scale(3.10264 3.11891)">
<stop stop-color="#397047"/>
<stop offset="0.32" stop-color="#366C43"/>
<stop offset="0.64" stop-color="#2E5F37"/>
<stop offset="0.97" stop-color="#214B24"/>
<stop offset="1" stop-color="#204922"/>
</radialGradient>
</defs>
</svg>
